<?xml version="1.0" standalone="no"?>
<!DOCTYPE svg PUBLIC "-//W3C//DTD SVG 20010904//EN"
 "http://www.w3.org/TR/2001/REC-SVG-20010904/DTD/svg10.dtd">
<svg version="1.0" xmlns="http://www.w3.org/2000/svg"
 width="225.000000pt" height="225.000000pt" viewBox="0 0 225.000000 225.000000"
 preserveAspectRatio="xMidYMid meet">
<metadata>
Created by potrace 1.16, written by Peter Selinger 2001-2019
</metadata>
<g transform="translate(0.000000,225.000000) scale(0.100000,-0.100000)"
fill="#000000" stroke="none">
<path d="M752 1488 c-9 -9 -12 -71 -12 -216 l0 -203 -22 7 c-39 11 -60 36 -56
66 4 23 2 25 -9 16 -8 -6 -21 -25 -29 -41 -14 -25 -14 -31 0 -52 14 -21 68
-45 103 -45 8 0 13 -22 15 -62 l3 -63 148 -3 147 -3 0 -63 0 -63 -60 -6 c-65
-7 -130 -30 -130 -46 0 -41 202 -71 359 -54 105 12 156 29 156 53 0 18 -60 39
-132 47 l-53 6 0 63 0 64 150 0 c137 0 150 2 160 19 5 11 10 83 10 162 l0 142
45 48 c49 52 55 77 27 102 -25 23 -30 21 -25 -5 3 -14 -6 -37 -21 -57 l-26
-35 0 107 c0 95 -2 107 -19 117 -29 15 -713 14 -729 -2z m658 -167 l0 -108
-78 -36 c-124 -56 -379 -117 -493 -117 l-29 0 0 185 0 185 300 0 300 0 0 -109z
m0 -256 l0 -105 -300 0 -300 0 0 30 c0 29 1 30 48 30 112 0 338 55 472 114 41
19 76 34 78 35 1 1 2 -46 2 -104z"/>
</g>
</svg>
